# xmcd
# 
# Track frame offsets:
#     150
#     26715
#     71683
#     110800
#     141663
#     172398
# 
# Disc length: 2575
# 
# Revision: 4
# Processed by: cddbd v1.5.2PL0 Copyright (c) Steve Scherf et al.
# Submitted via: fre:ac v1.0.31
# 
DISCID=640a0d06
DTITLE=Luther Vandross And Janet Jackson - The Best Things In Life Are Free
DYEAR=1992
DGENRE=R&B
TTITLE0=The Best Things In Life Are Free [Classic 12" Mix]
TTITLE1=The Best Things In Life Are Free [CJ's U.K. 12" Mix]
TTITLE2=The Best Things In Life Are Free [Def Version]
TTITLE3=The Best Things In Life Are Free [CJ's Fxtc Dub]
TTITLE4=The Best Things In Life Are Free [CJ's Vinyl Zone Dub]
TTITLE5=The Best Things In Life Are Free [Album Version]
EXTD=
EXTT0=
EXTT1=
EXTT2=
EXTT3=
EXTT4=
EXTT5=
PLAYORDER=
